<?xml version="1.0" encoding="UTF-8" standalone="no"?>
<!DOCTYPE svg PUBLIC "-//W3C//DTD SVG 1.1//EN"
 "http://www.w3.org/Graphics/SVG/1.1/DTD/svg11.dtd">
<!-- Generated by graphviz version 2.38.0 (20140413.2041)
 -->
<!-- Title: pubsub Pages: 1 -->
<svg width="398pt" height="216pt"
 viewBox="0.00 0.00 397.53 216.00" xmlns="http://www.w3.org/2000/svg" xmlns:xlink="http://www.w3.org/1999/xlink">
<g id="graph0" class="graph" transform="scale(1 1) rotate(0) translate(4 212)">
<title>pubsub</title>
<polygon fill="white" stroke="none" points="-4,4 -4,-212 393.534,-212 393.534,4 -4,4"/>
<!-- Publisher 1 -->
<g id="node1" class="node"><title>Publisher 1</title>
<ellipse fill="none" stroke="black" cx="54.5616" cy="-190" rx="50.2975" ry="18"/>
<text text-anchor="middle" x="54.5616" y="-185.8" font-family="Times,serif" font-size="14.00">Publisher 1</text>
</g>
<!-- Hub -->
<g id="node2" class="node"><title>Hub</title>
<ellipse fill="none" stroke="black" cx="147.562" cy="-104" rx="27" ry="18"/>
<text text-anchor="middle" x="147.562" y="-99.8" font-family="Times,serif" font-size="14.00">Hub</text>
</g>
<!-- Publisher 1&#45;&gt;Hub -->
<g id="edge1" class="edge"><title>Publisher 1&#45;&gt;Hub</title>
<path fill="none" stroke="black" d="M50.3808,-171.649C48.9722,-161.541 49.1074,-149.046 55.4718,-140 68.0425,-122.132 90.9956,-113.381 110.841,-109.098"/>
<polygon fill="black" stroke="black" points="111.669,-112.504 120.863,-107.24 110.393,-105.621 111.669,-112.504"/>
<text text-anchor="middle" x="137.607" y="-142.8" font-family="Times,serif" font-size="14.00">(MarketData, XETR, Trades)</text>
</g>
<!-- Subscriber 1 -->
<g id="node4" class="node"><title>Subscriber 1</title>
<ellipse fill="none" stroke="black" cx="54.5616" cy="-18" rx="54.6234" ry="18"/>
<text text-anchor="middle" x="54.5616" y="-13.8" font-family="Times,serif" font-size="14.00">Subscriber 1</text>
</g>
<!-- Hub&#45;&gt;Subscriber 1 -->
<g id="edge3" class="edge"><title>Hub&#45;&gt;Subscriber 1</title>
<path fill="none" stroke="black" d="M120.863,-100.76C99.313,-97.3928 70.2337,-88.983 55.4718,-68 51.0963,-61.7805 49.665,-53.9314 49.6555,-46.3485"/>
<polygon fill="black" stroke="black" points="53.1479,-46.5784 50.3808,-36.3513 46.1663,-46.0718 53.1479,-46.5784"/>
<text text-anchor="middle" x="137.607" y="-56.8" font-family="Times,serif" font-size="14.00">(MarketData, XETR, Trades)</text>
</g>
<!-- Subscriber 2 -->
<g id="node5" class="node"><title>Subscriber 2</title>
<ellipse fill="none" stroke="black" cx="241.562" cy="-18" rx="54.6234" ry="18"/>
<text text-anchor="middle" x="241.562" y="-13.8" font-family="Times,serif" font-size="14.00">Subscriber 2</text>
</g>
<!-- Hub&#45;&gt;Subscriber 2 -->
<g id="edge4" class="edge"><title>Hub&#45;&gt;Subscriber 2</title>
<path fill="none" stroke="black" d="M171.856,-95.9606C187.19,-90.4648 206.498,-81.4682 219.562,-68 225.655,-61.7186 230.237,-53.4579 233.597,-45.513"/>
<polygon fill="black" stroke="black" points="236.88,-46.7254 237.109,-36.1331 230.325,-44.2707 236.88,-46.7254"/>
<text text-anchor="middle" x="295.831" y="-56.8" font-family="Times,serif" font-size="14.00">(MarketData, *, Trades)</text>
</g>
<!-- Publisher 2 -->
<g id="node3" class="node"><title>Publisher 2</title>
<ellipse fill="none" stroke="black" cx="241.562" cy="-190" rx="50.2975" ry="18"/>
<text text-anchor="middle" x="241.562" y="-185.8" font-family="Times,serif" font-size="14.00">Publisher 2</text>
</g>
<!-- Publisher 2&#45;&gt;Hub -->
<g id="edge2" class="edge"><title>Publisher 2&#45;&gt;Hub</title>
<path fill="none" stroke="black" d="M237.109,-171.867C233.713,-161.587 228.132,-148.835 219.562,-140 209.049,-129.162 194.494,-121.22 181.219,-115.667"/>
<polygon fill="black" stroke="black" points="182.445,-112.389 171.856,-112.039 179.916,-118.916 182.445,-112.389"/>
<text text-anchor="middle" x="309.048" y="-142.8" font-family="Times,serif" font-size="14.00">(MarketData, XVIE, Trades)</text>
</g>
</g>
</svg>
