<?xml version="1.0" encoding="UTF-8" standalone="no"?>
<svg
   xmlns:dc="http://purl.org/dc/elements/1.1/"
   xmlns:cc="http://creativecommons.org/ns#"
   xmlns:rdf="http://www.w3.org/1999/02/22-rdf-syntax-ns#"
   xmlns:svg="http://www.w3.org/2000/svg"
   xmlns="http://www.w3.org/2000/svg"
   xmlns:sodipodi="http://sodipodi.sourceforge.net/DTD/sodipodi-0.dtd"
   xmlns:inkscape="http://www.inkscape.org/namespaces/inkscape"
   version="1.1"
   id="svg3626"
   viewBox="0 0 300.00006 244.18703"
   height="244.18703"
   width="300.00006"
   inkscape:version="0.91 r13725"
   sodipodi:docname="Twitter_bird_logo_2012.svg">
  <sodipodi:namedview
     pagecolor="#ffffff"
     bordercolor="#666666"
     borderopacity="1"
     objecttolerance="10"
     gridtolerance="10"
     guidetolerance="10"
     inkscape:pageopacity="0"
     inkscape:pageshadow="2"
     inkscape:window-width="1237"
     inkscape:window-height="606"
     id="namedview7"
     showgrid="false"
     inkscape:zoom="0.91333315"
     inkscape:cx="-8.759126"
     inkscape:cy="122.09351"
     inkscape:window-x="0"
     inkscape:window-y="0"
     inkscape:window-maximized="0"
     inkscape:current-layer="svg3626" />
  <defs
     id="defs3628" />
  <metadata
     id="metadata3631">
    <rdf:RDF>
      <cc:Work
         rdf:about="">
        <dc:format>image/svg+xml</dc:format>
        <dc:type
           rdf:resource="http://purl.org/dc/dcmitype/StillImage" />
        <dc:title />
      </cc:Work>
    </rdf:RDF>
  </metadata>
  <path
     inkscape:connector-curvature="0"
     d="m 94.71877,243.18702 c 112.46038,0 173.95627,-93.16765 173.95627,-173.95625 0,-2.64628 -0.0539,-5.28062 -0.1726,-7.90305 11.93799,-8.63016 22.31446,-19.39999 30.49762,-31.65984 -10.95459,4.86937 -22.74358,8.14741 -35.11071,9.62551 C 276.51276,31.7241 286.20381,19.75035 290.77518,5.476 278.96234,12.47907 265.88001,17.56897 251.95135,20.31655 240.79412,8.43219 224.91056,1 207.32243,1 c -33.76374,0 -61.14426,27.38052 -61.14426,61.13233 0,4.79784 0.5364,9.46458 1.58538,13.94057 C 96.94809,73.51604 51.89002,49.18708 21.73809,12.19299 c -5.25082,9.03545 -8.27852,19.53111 -8.27852,30.73006 0,21.21186 10.79366,39.93837 27.20766,50.89296 -10.03077,-0.30992 -19.45363,-3.06348 -27.69044,-7.64676 -0.009,0.25652 -0.009,0.50661 -0.009,0.78077 0,29.60957 21.07478,54.3319 49.0513,59.93435 -5.13757,1.40062 -10.54335,2.15158 -16.12196,2.15158 -3.93364,0 -7.76596,-0.38716 -11.49099,-1.1026 7.78383,24.2932 30.35457,41.97073 57.11525,42.46543 -20.92578,16.40207 -47.28712,26.17062 -75.93712,26.17062 -4.92898,0 -9.79834,-0.28036 -14.58427,-0.84634 27.05868,17.34379 59.18936,27.46396 93.72193,27.46396"
     style="fill:#000000;fill-opacity:1;fill-rule:nonzero;stroke:none"
     id="path3611" />
</svg>
